# xmcd
#
# Track frame offsets: 
#        150
#        16226
#        31376
#        49449
#        65678
#        79666
#        97478
#        122603
#        137003
#        153550
#        166113
#        183100
#        199816
#        211066
#
# Disc length: 3031 seconds
#
# Revision: 0
# Processed by: cddbd v1.5.2PL0 Copyright (c) Steve Scherf et al.
# Submitted via: ExactAudioCopyFreeDBPlugin 1.0
#
DISCID=bf0bd50e
DTITLE=Indio Saravanja - Hotel Kiss Me
DYEAR=2014
DGENRE=Blues
TTITLE0=Hotel Kiss Me
TTITLE1=Miss My Own Company
TTITLE2=Revolution
TTITLE3=Love Song
TTITLE4=Miracle
TTITLE5=Misunderstood
TTITLE6=Black Widow
TTITLE7=Beautiful Woman
TTITLE8=Somewhere In The Sun
TTITLE9=Nobody Wins
TTITLE10=Oh Lord
TTITLE11=Love Is Gone
TTITLE12=Hey (Are You Loving Anybody)
TTITLE13=Minor Blues
EXTD=
EXTT0=
EXTT1=
EXTT2=
EXTT3=
EXTT4=
EXTT5=
EXTT6=
EXTT7=
EXTT8=
EXTT9=
EXTT10=
EXTT11=
EXTT12=
EXTT13=
PLAYORDER=
